<svg id="Lag_1" data-name="Lag 1" xmlns="http://www.w3.org/2000/svg" viewBox="0 0 62.48 29.39"><defs><style>.cls-1,.cls-2{fill:#fff;}.cls-1{stroke:#1d1d1b;stroke-miterlimit:10;}.cls-3{fill:#1d1d1b;}</style></defs><title>sneaki logo</title><path class="cls-1" d="M168.22,328.64" transform="translate(-175.8 -310.82)"/><path class="cls-1" d="M167.06,337.2" transform="translate(-175.8 -310.82)"/><path class="cls-2" d="M191.92,333.93l.24.21-1,0h0l-1.91,0h-1a.89.89,0,0,1,.2-.19,2.94,2.94,0,0,1,1.72-.43A2.74,2.74,0,0,1,191.92,333.93Z" transform="translate(-175.8 -310.82)"/><polygon class="cls-2" points="18.37 22.81 18.97 22.81 18.97 23.35 18.37 23.34 18.37 22.81"/><path class="cls-2" d="M198.41,334.08l.14.14h-.9l-1.68,0h-.83a1.78,1.78,0,0,1,.45-.37,2.38,2.38,0,0,1,2.82.27Z" transform="translate(-175.8 -310.82)"/><path class="cls-2" d="M203,323.75a.47.47,0,0,1-.48-.48.48.48,0,1,1,.95,0A.47.47,0,0,1,203,323.75Z" transform="translate(-175.8 -310.82)"/><path class="cls-2" d="M205.38,334.26l0,.05h-.87l-2.38,0h-.83a2.54,2.54,0,0,1,2-.85A2.62,2.62,0,0,1,205.38,334.26Z" transform="translate(-175.8 -310.82)"/><path class="cls-2" d="M207.65,325.76a.48.48,0,0,1-.48.48.48.48,0,0,1,0-1A.48.48,0,0,1,207.65,325.76Z" transform="translate(-175.8 -310.82)"/><path class="cls-2" d="M211.93,327.66a.48.48,0,1,1-.48-.48A.49.49,0,0,1,211.93,327.66Z" transform="translate(-175.8 -310.82)"/><path class="cls-2" d="M211.8,334.39H211l-2.62,0h-.78A1.87,1.87,0,0,1,208,334a3,3,0,0,1,1.64-.44,3.15,3.15,0,0,1,1.69.43A1.56,1.56,0,0,1,211.8,334.39Z" transform="translate(-175.8 -310.82)"/><polygon class="cls-2" points="38.12 22.81 38.72 22.81 38.72 23.61 38.12 23.6 38.12 22.81"/><path class="cls-2" d="M216.29,329.2a.48.48,0,0,1-1-.05.48.48,0,0,1,1,.05Z" transform="translate(-175.8 -310.82)"/><polygon class="cls-2" points="42.12 22.81 42.86 22.81 41.98 23.65 41.26 23.64 42.12 22.81"/><path class="cls-2" d="M220.84,330.34a.48.48,0,1,1-.48-.48A.48.48,0,0,1,220.84,330.34Z" transform="translate(-175.8 -310.82)"/><polygon class="cls-2" points="44.27 22.81 44.86 22.81 44.86 23.69 44.27 23.68 44.27 22.81"/><path class="cls-2" d="M237.78,334.73h-.5c0-.37-.35-3.24-2.28-4.13a39.38,39.38,0,0,0-8.63-2.24c-7.91-1.5-17.75-3.37-23-12.33-.63-1.09-3.15-4.2-5.29-4.2h0c-1,0-1.45,2-2,4.51-.11.54-.23,1.09-.36,1.67a5.35,5.35,0,0,1-3.59,3.71c-3.2,1.27-7.74,1-10.13-.64a11.4,11.4,0,0,1-2-1.91c-.37-.42-1-1.12-1.19-1.1,0,0-.21.12-.28.94l-1.06,6.81c-.11,1.28-.22,2.67-.34,4.06s-.22,2.77-.33,4.07h-.5c.22-2.62.45-5.57.68-8.19L178,319c.05-.54.19-1.19.6-1.35.87-.34,1.94,1.89,3.65,3,3.41,2.32,11.94,1.8,13-2.75.82-3.69,1.1-6.54,2.8-6.58,2.52-.05,5.25,3.55,5.77,4.44,7.33,12.55,23.87,10.88,31.4,14.37C237.56,331.22,237.78,334.73,237.78,334.73Z" transform="translate(-175.8 -310.82)"/><path class="cls-2" d="M238.28,334.7l-.5,0-.5,0v0c0-.37-.35-3.24-2.28-4.13a39.38,39.38,0,0,0-8.63-2.24c-7.91-1.5-17.75-3.37-23-12.33-.63-1.09-3.15-4.2-5.29-4.2h0c-1,0-1.45,2-2,4.51-.11.54-.23,1.09-.36,1.67a5.35,5.35,0,0,1-3.59,3.71c-3.2,1.27-7.74,1-10.13-.64a11.4,11.4,0,0,1-2-1.91c-.37-.42-1-1.12-1.19-1.1,0,0-.21.12-.28.94l-1.06,6.81c-.11,1.28-.22,2.67-.34,4.06s-.22,2.77-.33,4.07v0l-1-.08c.11-1.31.23-2.7.34-4.1s.22-2.79.34-4.1l1.06-6.82c0-.33.13-1.44.91-1.74s1.5.47,2.3,1.37a10.68,10.68,0,0,0,1.81,1.74c2.11,1.43,6.33,1.68,9.2.55a4.55,4.55,0,0,0,3-3c.13-.58.24-1.13.35-1.66.64-3.06,1.09-5.27,2.93-5.31h.06c2.81,0,5.61,3.76,6.15,4.69,5,8.57,14.61,10.39,22.32,11.85a40.49,40.49,0,0,1,8.86,2.32C238,330.88,238.27,334.54,238.28,334.7Z" transform="translate(-175.8 -310.82)"/><path class="cls-3" d="M231.93,305" transform="translate(-175.8 -310.82)"/><path class="cls-2" d="M192.19,337a2.91,2.91,0,0,0-1.61-.59,3.56,3.56,0,0,1-1.52-.43,1,1,0,0,1-.58-.87,1,1,0,0,1,.48-.86,1.14,1.14,0,0,1,.31-.16,2.37,2.37,0,0,1,1-.17,2.1,2.1,0,0,1,.94.19h0a1.43,1.43,0,0,1,.81,1.05h.56a1.42,1.42,0,0,0-.4-1l-.24-.21a2.74,2.74,0,0,0-1.68-.46,2.94,2.94,0,0,0-1.72.43.89.89,0,0,0-.2.19,1.35,1.35,0,0,0-.41,1,1.47,1.47,0,0,0,.61,1.18,3,3,0,0,0,1.61.57,3.52,3.52,0,0,1,1.52.43,1,1,0,0,1,.57.86,1.31,1.31,0,0,1-.54,1.09,2.36,2.36,0,0,1-1.44.4,2,2,0,0,1-1.33-.44,1.4,1.4,0,0,1-.55-1.11h-.55a1.84,1.84,0,0,0,.71,1.45,2.56,2.56,0,0,0,1.72.6,3.05,3.05,0,0,0,1.85-.51,1.66,1.66,0,0,0,.1-2.63Z" transform="translate(-175.8 -310.82)"/><path class="cls-2" d="M198.55,334.22l-.14-.14a2.38,2.38,0,0,0-2.82-.27,1.78,1.78,0,0,0-.45.37,1.81,1.81,0,0,0-.37.52v-1.07h-.6V340h.6v-4.19a2.21,2.21,0,0,1,.71-1.29,2.2,2.2,0,0,1,1.33-.51,1.6,1.6,0,0,1,.84.22,1.51,1.51,0,0,1,.34.24,1.47,1.47,0,0,1,.49,1.12V340h.6v-4.41A2,2,0,0,0,198.55,334.22Z" transform="translate(-175.8 -310.82)"/><path class="cls-2" d="M206.16,336.52a3.23,3.23,0,0,0-.74-2.21l0-.05a2.62,2.62,0,0,0-2-.85,2.54,2.54,0,0,0-2,.85l-.07.07a4.32,4.32,0,0,0,0,4.95,2.55,2.55,0,0,0,2.06.93,3.09,3.09,0,0,0,1.87-.59,2.2,2.2,0,0,0,1-1.46h-.6a2.19,2.19,0,0,1-.86,1.09,2.44,2.44,0,0,1-1.37.4,2,2,0,0,1-1.63-.77,3.25,3.25,0,0,1-.61-2.07h5.07Zm-.6-.28h-4.47v-.16a2.31,2.31,0,0,1,.73-1.54,2.88,2.88,0,0,1,.34-.27h0a2,2,0,0,1,1.16-.34,2.14,2.14,0,0,1,1.22.37,2,2,0,0,1,.3.23,2.26,2.26,0,0,1,.71,1.49Z" transform="translate(-175.8 -310.82)"/><path class="cls-2" d="M212.72,339.74l-.14,0a.47.47,0,0,1-.4-.27,1.19,1.19,0,0,1-.16-.64V335a.94.94,0,0,0-.22-.61,1.56,1.56,0,0,0-.48-.43,3.15,3.15,0,0,0-1.69-.43A3,3,0,0,0,208,334a1.87,1.87,0,0,0-.41.37,1.1,1.1,0,0,0-.26.72v.39h.57v-.33a.94.94,0,0,1,.47-.77l0,0a2.27,2.27,0,0,1,1.24-.33,2.24,2.24,0,0,1,1.28.34l.07.05a1,1,0,0,1,.47.79v.56c0,.19-.2.36-.61.49a6.65,6.65,0,0,1-1.54.3,2.86,2.86,0,0,0-1.61.63,1.59,1.59,0,0,0-.65,1.25,1.57,1.57,0,0,0,.67,1.28,2.48,2.48,0,0,0,1.59.53,2.81,2.81,0,0,0,1.35-.32,1.54,1.54,0,0,0,.76-.82,1.17,1.17,0,0,0,.23.72.77.77,0,0,0,.6.3,1.35,1.35,0,0,0,.57-.11v-.28A.19.19,0,0,1,212.72,339.74Zm-1.27-1.8a2.12,2.12,0,0,1-.74,1.3,2.16,2.16,0,0,1-1.41.52,1.79,1.79,0,0,1-1.16-.4,1.18,1.18,0,0,1-.49-1,1.2,1.2,0,0,1,.48-.95,2,2,0,0,1,1.17-.48,10.64,10.64,0,0,0,1.39-.19,1.79,1.79,0,0,0,.76-.3Z" transform="translate(-175.8 -310.82)"/><path class="cls-2" d="M220.07,333.63V340h.59v-6.35Z" transform="translate(-175.8 -310.82)"/><path class="cls-2" d="M220.84,330.34a.48.48,0,1,1-.48-.48A.48.48,0,0,1,220.84,330.34Z" transform="translate(-175.8 -310.82)"/><path class="cls-2" d="M211.93,327.66a.48.48,0,1,1-.48-.48A.49.49,0,0,1,211.93,327.66Z" transform="translate(-175.8 -310.82)"/><path class="cls-2" d="M216.29,329.2a.48.48,0,0,1-1-.05.48.48,0,0,1,1,.05Z" transform="translate(-175.8 -310.82)"/><path class="cls-2" d="M207.65,325.76a.48.48,0,0,1-.48.48.48.48,0,0,1,0-1A.48.48,0,0,1,207.65,325.76Z" transform="translate(-175.8 -310.82)"/><path class="cls-2" d="M203.5,323.27a.48.48,0,1,1-.95,0,.48.48,0,1,1,.95,0Z" transform="translate(-175.8 -310.82)"/><path class="cls-1" d="M147,341.36" transform="translate(-175.8 -310.82)"/><path class="cls-2" d="M216.22,336l1.56-1.49.88-.84h-.74l-.86.83-2.54,2.47v-3.3h-.6V340h.6v-2.37l1.31-1.25,2.49,3.62H219Z" transform="translate(-175.8 -310.82)"/></svg>